<svg viewBox="0 0 100 100" xml:space="preserve" xmlns="http://www.w3.org/2000/svg">
  <path d="M83.48 24.46a4.63 4.63 0 0 0-7.06-3.92 4.63 4.63 0 1 0-8.54-3.5 4.6 4.6 0 0 0-5.18-.13 4.63 4.63 0 0 0-8.56-3.02 4.63 4.63 0 0 0-6.87 4.03c.01.17.04.34.06.5a4.59 4.59 0 0 0-2.05-.5c-.13 0-.24.03-.36.04a4.61 4.61 0 0 0-4.27-6.41 4.63 4.63 0 0 0-4.63 4.63l.02.18c-.4-.1-.8-.18-1.23-.18-.25 0-.5.03-.74.07l.01-.07a4.63 4.63 0 1 0-9.26 0 4.63 4.63 0 0 0-4.55 5.38 4.62 4.62 0 0 0-.35 9.06l-2.3 3.02 29.66 7.29 24.94-4.86 8.84-4.1-.45-3.23a4.63 4.63 0 0 0 2.87-4.28z" fill="#E8E462" stroke="#191919" stroke-miterlimit="10"/>
  <path d="M26.66 92.73c-.99 0-1.83-.71-1.99-1.7L14.35 29.08a2.01 2.01 0 0 1 2-2.35h67.3a2.02 2.02 0 0 1 2 2.35L75.33 91.04c-.16.98-1 1.69-2 1.69H26.67z" fill="#EFEFEF"/>
  <path d="M83.66 27.22c.94 0 1.65.84 1.5 1.77L74.84 90.96a1.52 1.52 0 0 1-1.5 1.27H26.66c-.74 0-1.38-.54-1.5-1.28L14.84 29a1.52 1.52 0 0 1 1.5-1.77h67.32m0-1H16.34a2.52 2.52 0 0 0-2.48 2.93l10.32 61.97a2.51 2.51 0 0 0 2.48 2.1h46.68c1.23 0 2.28-.88 2.48-2.1l10.32-61.97a2.52 2.52 0 0 0-2.48-2.93z" fill="#191919"/>
  <path fill="#A52929" d="M32.41 92.23h-7.03L14.55 27.22h10.13zM46.48 92.23h-7.03l-4.64-65.01h10.13zM60.55 92.23h-7.03l1.54-65.01h10.13zM74.63 92.23h-7.04l7.73-65.01h10.13z"/>
  <path d="M84.44 27.22c.53 0 .93.48.85 1L74.73 91.51a.86.86 0 0 1-.84.72H26.1a.86.86 0 0 1-.84-.72L14.72 28.22a.86.86 0 0 1 .84-1h68.88m0-1H15.56a1.86 1.86 0 0 0-1.83 2.16l10.54 63.3c.15.9.92 1.54 1.83 1.54h47.8c.9 0 1.68-.65 1.83-1.55l10.54-63.29a1.86 1.86 0 0 0-1.83-2.16z" fill="#191919"/>
</svg>
